<?xml version="1.0" standalone="no"?>
<!DOCTYPE svg PUBLIC "-//W3C//DTD SVG 20010904//EN"
 "http://www.w3.org/TR/2001/REC-SVG-20010904/DTD/svg10.dtd">
<svg version="1.0" xmlns="http://www.w3.org/2000/svg"
 width="156.000000pt" height="147.000000pt" viewBox="0 0 156.000000 147.000000"
 preserveAspectRatio="xMidYMid meet">

<g transform="translate(0.000000,147.000000) scale(0.100000,-0.100000)"
fill="#000000" stroke="none">
<path d="M651 1345 c-275 -60 -481 -315 -481 -595 0 -220 132 -436 328 -539
460 -238 989 168 876 672 -72 323 -399 532 -723 462z m420 -281 c33 -30 32
-65 -10 -225 -22 -85 -45 -170 -51 -189 -5 -19 -10 -36 -10 -37 0 -2 10 -3 22
-3 12 0 39 18 63 44 33 33 46 41 59 34 23 -13 20 -29 -12 -77 -36 -53 -66 -74
-117 -81 l-40 -5 -15 -67 c-8 -36 -19 -70 -23 -74 -11 -12 -97 38 -97 56 0 8
7 39 14 67 l14 53 -51 23 -51 23 -40 -44 c-59 -64 -106 -85 -178 -80 -52 4
-64 9 -95 40 -64 64 -52 163 26 215 50 34 96 39 170 19 52 -13 67 -14 77 -4 6
7 50 79 97 159 47 80 93 151 101 158 38 32 109 30 147 -5z"/>
<path d="M900 833 c-41 -70 -76 -132 -78 -138 -4 -14 58 -49 68 -39 5 5 24 68
43 139 20 72 39 138 42 148 16 39 -4 11 -75 -110z"/>
<path d="M525 646 c-48 -73 73 -88 125 -16 l20 28 -23 6 c-12 3 -41 6 -64 6
-34 0 -46 -5 -58 -24z"/>
</g>
</svg>
