<?xml version="1.0" standalone="no"?>
<!DOCTYPE svg PUBLIC "-//W3C//DTD SVG 20010904//EN"
 "http://www.w3.org/TR/2001/REC-SVG-20010904/DTD/svg10.dtd">
<svg version="1.0" xmlns="http://www.w3.org/2000/svg"
 width="152.000000pt" height="120.000000pt" viewBox="0 0 152.000000 120.000000"
 preserveAspectRatio="xMidYMid meet">

<g transform="translate(0.000000,120.000000) scale(0.100000,-0.100000)"
fill="#000000" stroke="none">
<path d="M640 1087 c-84 -28 -159 -77 -213 -136 -284 -317 -62 -822 362 -821
173 0 320 80 413 224 177 274 42 640 -271 736 -88 28 -206 26 -291 -3z m382
-214 c11 -10 18 -30 18 -54 0 -31 -35 -184 -66 -291 -9 -31 27 -21 66 17 32
31 38 34 49 21 27 -32 -60 -126 -116 -126 -17 0 -24 -9 -32 -37 -6 -21 -11
-42 -11 -48 -1 -31 -17 -36 -54 -18 -36 16 -38 20 -33 53 3 19 9 44 12 56 5
17 -1 24 -34 38 l-40 19 -34 -37 c-60 -63 -129 -80 -194 -49 -74 35 -82 125
-16 183 35 31 39 32 102 27 36 -3 75 -7 85 -9 16 -2 34 21 88 112 81 138 117
175 161 166 17 -3 39 -14 49 -23z"/>
<path d="M880 675 c-35 -58 -61 -107 -59 -109 15 -12 51 -26 58 -22 5 3 11 18
14 33 4 16 17 67 31 116 13 48 23 87 21 87 -2 0 -31 -47 -65 -105z"/>
<path d="M591 541 c-35 -35 -1 -72 50 -52 25 9 65 48 58 56 -3 2 -23 7 -46 11
-33 5 -45 2 -62 -15z"/>
</g>
</svg>
